<?xml version="1.0" standalone="no"?>
<!DOCTYPE svg PUBLIC "-//W3C//DTD SVG 20010904//EN"
 "http://www.w3.org/TR/2001/REC-SVG-20010904/DTD/svg10.dtd">
<svg version="1.0" xmlns="http://www.w3.org/2000/svg"
 width="176.000000pt" height="176.000000pt" viewBox="0 0 176.000000 176.000000"
 preserveAspectRatio="xMidYMid meet">
<metadata>
Created by potrace 1.11, written by Peter Selinger 2001-2013
</metadata>
<g transform="translate(0.000000,176.000000) scale(0.100000,-0.100000)"
fill="#000000" stroke="none">
<path d="M949 1544 c-135 -43 -267 -148 -331 -264 l-30 -56 -66 2 c-276 6
-507 -211 -518 -486 -2 -47 1 -105 7 -130 33 -151 143 -291 280 -357 108 -52
271 -64 380 -28 89 30 207 118 257 193 13 20 21 23 46 17 53 -13 209 -14 261
-3 209 45 381 212 435 423 11 43 20 106 20 140 0 81 -31 201 -72 278 -35 65
-145 183 -193 207 -17 8 -37 19 -45 26 -8 6 -46 22 -85 35 -103 34 -244 36
-346 3z"/>
</g>
</svg>
